<svg xmlns="http://www.w3.org/2000/svg" xmlns:xlink="http://www.w3.org/1999/xlink" width="63" height="54" viewBox="0 0 63 54">
  <defs>
    <filter id="Icon_awesome-user-lock" x="0" y="0" width="63" height="54" filterUnits="userSpaceOnUse">
      <feOffset dy="3" input="SourceAlpha"/>
      <feGaussianBlur stdDeviation="3" result="blur"/>
      <feFlood flood-opacity="0.161"/>
      <feComposite operator="in" in2="blur"/>
      <feComposite in="SourceGraphic"/>
    </filter>
  </defs>
  <g transform="matrix(1, 0, 0, 1, 0, 0)" filter="url(#Icon_awesome-user-lock)">
    <path id="Icon_awesome-user-lock-2" data-name="Icon awesome-user-lock" d="M15.75,18a9,9,0,1,0-9-9A9,9,0,0,0,15.75,18Zm6.75,4.5a4.435,4.435,0,0,1,.57-2.145,9.622,9.622,0,0,0-1.02-.105H20.876a12.24,12.24,0,0,1-10.252,0H9.45A9.452,9.452,0,0,0,0,29.7v2.927A3.375,3.375,0,0,0,3.375,36H23.126a4.468,4.468,0,0,1-.626-2.25Zm20.25-2.25H40.5V14.625a5.625,5.625,0,0,0-11.25,0V20.25H27a2.25,2.25,0,0,0-2.25,2.25V33.75A2.25,2.25,0,0,0,27,36H42.75A2.25,2.25,0,0,0,45,33.75V22.5A2.25,2.25,0,0,0,42.75,20.25ZM34.875,30.375a2.25,2.25,0,1,1,2.25-2.25A2.25,2.25,0,0,1,34.875,30.375Zm2.25-10.125h-4.5V14.625a2.25,2.25,0,0,1,4.5,0Z" transform="translate(9 6)" fill="#4d93fd"/>
  </g>
</svg>
