<?xml version="1.0" encoding="UTF-8"?>
<!DOCTYPE svg PUBLIC "-//W3C//DTD SVG 1.1//EN" "http://www.w3.org/Graphics/SVG/1.1/DTD/svg11.dtd">
<!-- Creator: CorelDRAW 2017 -->
<svg xmlns="http://www.w3.org/2000/svg" xml:space="preserve" width="269.833mm" height="215.826mm" version="1.1" style="shape-rendering:geometricPrecision; text-rendering:geometricPrecision; image-rendering:optimizeQuality; fill-rule:evenodd; clip-rule:evenodd"
viewBox="0 0 26983.28 21582.62"
 xmlns:xlink="http://www.w3.org/1999/xlink">
 <defs>
  <style type="text/css">
   <![CDATA[
    .fil0 {fill:#FEFEFE}
   ]]>
  </style>
 </defs>
 <g id="Capa_x0020_1">
  <metadata id="CorelCorpID_0Corel-Layer"/>
  <path class="fil0" d="M22559.86 1725.2c-396.38,-396.38 -396.38,-1037.33 0,-1429.49 396.38,-392.16 1037.33,-396.38 1429.49,0l2698.75 2698.75c189.76,189.76 295.18,446.98 295.18,716.86 0,269.88 -105.42,527.1 -295.18,716.86l-2698.75 2698.75c-396.38,396.38 -1037.33,396.38 -1429.49,0 -392.16,-396.38 -396.38,-1037.33 0,-1429.49l969.86 -969.86 -7337.22 -8.46c-560.83,0 -1012.03,-451.2 -1012.03,-1012.03 0,-560.83 451.2,-1012.03 1012.03,-1012.03l7341.44 0 -974.08 -969.86zm-18132.22 14168.43l-969.86 969.86 7337.22 0.01c560.83,0 1012.03,451.2 1012.03,1012.03 0,560.83 -451.2,1012.03 -1012.03,1012.03l-7341.44 0 969.86 969.86c396.38,396.38 396.38,1037.33 0,1429.49 -396.38,392.16 -1037.33,396.38 -1429.49,0l-2698.75 -2694.53c-189.76,-189.76 -295.18,-446.98 -295.18,-716.86 0,-269.88 105.42,-527.1 295.18,-716.86l2698.75 -2698.75c396.38,-396.38 1037.33,-396.38 1429.49,0 392.16,396.38 396.38,1037.33 0,1429.49l4.22 4.23zm-379.52 -13198.57l10200.44 0c-156.02,303.61 -248.79,645.17 -248.79,1012.03 0,1210.22 982.51,2192.73 2192.73,2192.73l4950.52 0c-168.67,716.86 25.3,1496.96 581.92,2057.8 856.01,856.01 2243.34,856.01 3099.35,0l813.84 -813.84 0 9045.03c0,1488.53 -1210.22,2698.75 -2698.75,2698.75l-10200.44 0c156.02,-303.61 248.79,-645.17 248.79,-1012.03 0,-1210.22 -982.51,-2192.73 -2192.73,-2192.73l-4950.52 0c168.67,-716.86 -25.3,-1496.96 -581.92,-2057.8 -856.01,-856.01 -2243.34,-856.01 -3099.35,0l-813.84 813.84 0 -9045.03c0,-1488.53 1210.22,-2698.75 2698.75,-2698.75zm2698.75 2698.75l-2698.75 0 0 2698.75c1488.53,0 2698.75,-1210.22 2698.75,-2698.75zm16192.51 8096.25c-1488.53,0 -2698.75,1210.22 -2698.75,2698.75l2698.75 0 0 -2698.75zm-9445.63 1349.38c2234.9,0 4048.13,-1813.22 4048.13,-4048.13 0,-2234.91 -1813.22,-4048.13 -4048.13,-4048.13 -2234.91,0 -4048.13,1813.22 -4048.13,4048.13 0,2234.91 1813.22,4048.13 4048.13,4048.13z"/>
 </g>
</svg>
