<svg id="Capa_1" data-name="Capa 1" xmlns="http://www.w3.org/2000/svg" viewBox="0 0 565.79 490.21"><defs><style>.cls-1{fill:#fff;}</style></defs><path class="cls-1" d="M281.22,90.23c40.45,0,80.91.28,121.36-.14,15.86-.17,29,12.53,28.4,28.57-.52,13.54-.08,27.11-.12,40.67,0,14.53-9.59,25.49-24,27.26-2.61.32-2.68,1.62-2.67,3.55q0,19.17,0,38.34c0,16.1-11.43,27.52-27.47,27.59-3.89,0-7.78.15-11.66-.05-2.82-.14-3.61.91-3.59,3.64.11,14.33-.07,28.67.09,43S356.1,328.77,345,337.77c-2,1.61-2.19,2.53-.27,4.31,5.65,5.21,6.36,12.3,6.54,19.33.18,6.54-.05,13.11-.48,19.65-.68,10-9.92,18.93-20,19q-52.17.2-104.35,0c-10,0-19.42-9-19.92-19-.42-8.3-1.19-16.62-.19-25,.66-5.49,2.26-10.43,6.41-14.23,1.65-1.52,1.64-2.4-.19-3.84-11.6-9.13-17.16-21.08-16.9-35.93.24-14.11,0-28.23.11-42.34,0-3-1-3.82-3.83-3.75-4.09.1-8.22.47-12.29-.45-12.71-2.87-21.22-13.32-21.27-26.3s-.06-26,0-39c0-2.45-.58-3.39-3.27-3.71a26.53,26.53,0,0,1-23.43-26.43q-.09-21.67,0-43.34a26.43,26.43,0,0,1,26.5-26.51Q219.71,90.18,281.22,90.23Zm-3.1,166.13a14.86,14.86,0,0,0-1.63-.27c-22.23,0-44.46,0-66.68-.06-2.75,0-3,1.31-3,3.5.06,14.34,0,28.68.08,43a39.32,39.32,0,0,0,1,8.58c3.47,14.88,16,24.42,32.38,24.48q38.34.12,76.68,0a40.39,40.39,0,0,0,8.91-1c15-3.5,24.46-16.12,24.5-32.71q.09-41.5,0-83c0-4.22-.28-8.44-.69-12.64a15.66,15.66,0,0,0-15.1-14.13c-7.76-.12-14.07,5.69-15.25,13.89a52.77,52.77,0,0,0-.51,7.63c0,12,.05,24,0,36,0,4.43-1.77,6.18-6.2,6.51-6.46.47-12.83,1.4-18.73,4.24-18,8.65-27.17,23.19-28.4,43-.24,4-2.23,6.1-5.58,6.09s-5.43-2.32-5.56-6.44a51.91,51.91,0,0,1,3-18C261.14,273.42,268.23,264.2,278.12,256.36Zm3.52-155H201c-13.67,0-27.33-.06-41,0-10.12.06-16.92,6.27-17.09,16.12-.26,14-.22,28,0,42,.13,8.12,5.47,14.28,12.54,15.56,2.2.4,3-.06,3-2.41-.11-8.55-.06-17.11,0-25.66,0-1.57-.26-2.66-1.94-3.38a5.23,5.23,0,0,1-3.2-6.56c.76-3,3-4.24,6-4.14.89,0,1.78,0,2.67,0H400.55c1,0,2,0,3,0,2.91,0,5,1.25,5.76,4.07a5.23,5.23,0,0,1-3.12,6.59,3.08,3.08,0,0,0-2,3.35c.05,8.55.11,17.11,0,25.66,0,2.67,1.05,2.86,3.22,2.43,7.06-1.4,12.2-7.62,12.3-15.77.17-13.89.14-27.78,0-41.66a15.63,15.63,0,0,0-6.12-12.78c-3.52-2.73-7.62-3.44-11.93-3.44Zm-23.09,43a6.39,6.39,0,0,0-1.3-.35c-15,0-30,0-45,0-1.88,0-2.73,1-3.56,2.42a25.86,25.86,0,0,1-15.14,12.32c-2.28.7-2.78,1.93-2.77,4.11q.14,18.34,0,36.67c0,2.3.75,3.32,2.91,4a25.64,25.64,0,0,1,17.07,16.92c.83,2.46,2,3.16,4.52,3.15q44.34-.12,88.68,0c2.87,0,3.89-.75,3.84-3.74-.08-5.43-.7-10.93.34-16.3a27.07,27.07,0,0,1,24.55-21.87c11.62-1,23.05,6.42,27.32,17.86.83,2.23,1.44,4.55,2.14,6.83a67.59,67.59,0,0,1,6.71-2.82c2.15-.66,3-1.69,2.94-4-.12-12.33-.1-24.67,0-37,0-2.11-.63-3.18-2.71-3.83a25.37,25.37,0,0,1-15.14-12.29c-1.1-2-2.47-2.47-4.56-2.46-14.22.06-28.44,0-42.67.06-.79,0-1.77-.44-2.46.63.33.43.66.87,1,1.31,11.72,16.28,11.16,40.35-1.3,56.05-12.14,15.3-33.43,15.32-45.31-.18-9-11.73-11.27-25.1-8.44-39.45A43.09,43.09,0,0,1,258.55,144.42ZM278.42,389c16.44,0,32.88,0,49.32,0,7.52,0,11.87-4.32,12-11.75q.1-9.33,0-18.66c-.09-7.3-4.39-11.74-11.62-11.75q-49.49-.09-99,0c-7.29,0-11.51,4.37-11.6,11.72-.08,5.88,0,11.77,0,17.66,0,8.77,4.08,12.78,12.94,12.79Q254.43,389,278.42,389ZM196.2,144c-8.29,0-15.82.1-23.34,0-2.64-.05-3.44.85-3.43,3.46.08,26.76,0,53.53.06,80.3,0,4.82,1.32,9.21,4.93,12.67s8.05,4.51,12.86,4.51h71.3q22.67,0,45.32,0c1.18,0,3,.54,3.37-.71a14.09,14.09,0,0,0,.07-8.5c-.59-1.87-3-.93-4.52-.93q-47.31-.08-94.63-.05c-5.07,0-6.55-1.29-7.25-6.17-1.32-9.2-6.05-13.84-15.41-15.12-4.29-.59-5.83-2.23-5.84-6.54q0-25.83,0-51.65c0-4.12,1.58-5.79,5.67-6.36C189.13,148.36,192.79,147.59,196.2,144Zm106.13,29c-.47-6.58-1.62-12.94-5.19-18.7-8.21-13.24-23.1-13.42-31.58-.31a33.27,33.27,0,0,0-5.18,17.32c-.29,9.72,1.86,18.76,9.22,25.8,7.07,6.75,16.5,6.64,23.52-.2C299.84,190.35,301.83,182,302.33,173Zm64.41-28.92c2.95,3,4.61,3.77,9.67,4.65,5.35.92,6.44,2.21,6.45,7.73q0,24.83,0,49.64c0,5.25-1.21,6.62-6.38,7.39-8.77,1.32-13.82,6.06-14.73,14.62-.51,4.83-.15,9.75-.22,14.64,0,1.82,1,2.21,2.58,2.2,3.44,0,6.88,0,10.33,0,12.45,0,18.61-6.19,18.62-18.68q0-38.81,0-77.62c0-.88,0-1.77,0-2.66a1.67,1.67,0,0,0-1.82-1.89Z"/></svg>