<svg id="Logo" xmlns="http://www.w3.org/2000/svg" xmlns:xlink="http://www.w3.org/1999/xlink" width="292.72" height="386.98" viewBox="0 0 292.72 386.98">
  <defs>
    <clipPath id="clip-path">
      <rect id="Rectángulo_821" data-name="Rectángulo 821" width="292.72" height="386.98" fill="none"/>
    </clipPath>
    <filter id="Trazado_2446" x="-4.763" y="-7.103" width="301.97" height="277.878" filterUnits="userSpaceOnUse">
      <feOffset dx="4" dy="3" input="SourceAlpha"/>
      <feGaussianBlur stdDeviation="3" result="blur"/>
      <feFlood flood-opacity="0.78"/>
      <feComposite operator="in" in2="blur"/>
      <feComposite in="SourceGraphic"/>
    </filter>
    <filter id="Trazado_2447" x="-4.787" y="294.142" width="91.424" height="104.625" filterUnits="userSpaceOnUse">
      <feOffset dx="4" dy="3" input="SourceAlpha"/>
      <feGaussianBlur stdDeviation="3" result="blur-2"/>
      <feFlood flood-opacity="0.702"/>
      <feComposite operator="in" in2="blur-2"/>
      <feComposite in="SourceGraphic"/>
    </filter>
    <filter id="Trazado_2449" x="82.065" y="294.143" width="34.971" height="104.624" filterUnits="userSpaceOnUse">
      <feOffset dx="4" dy="3" input="SourceAlpha"/>
      <feGaussianBlur stdDeviation="3" result="blur-3"/>
      <feFlood flood-opacity="0.702"/>
      <feComposite operator="in" in2="blur-3"/>
      <feComposite in="SourceGraphic"/>
    </filter>
    <filter id="Trazado_2451" x="112.35" y="294.142" width="91.425" height="104.625" filterUnits="userSpaceOnUse">
      <feOffset dx="4" dy="3" input="SourceAlpha"/>
      <feGaussianBlur stdDeviation="3" result="blur-4"/>
      <feFlood flood-opacity="0.702"/>
      <feComposite operator="in" in2="blur-4"/>
      <feComposite in="SourceGraphic"/>
    </filter>
    <filter id="Trazado_2453" x="193.088" y="294.143" width="100.053" height="104.625" filterUnits="userSpaceOnUse">
      <feOffset dx="4" dy="3" input="SourceAlpha"/>
      <feGaussianBlur stdDeviation="3" result="blur-5"/>
      <feFlood flood-opacity="0.702"/>
      <feComposite operator="in" in2="blur-5"/>
      <feComposite in="SourceGraphic"/>
    </filter>
    <filter id="Trazado_2444" x="144.765" y="118.365" width="160.743" height="149.087" filterUnits="userSpaceOnUse">
      <feOffset dx="4" dy="3" input="SourceAlpha"/>
      <feGaussianBlur stdDeviation="3" result="blur-6"/>
      <feFlood flood-opacity="0.702"/>
      <feComposite operator="in" in2="blur-6"/>
      <feComposite in="SourceGraphic"/>
    </filter>
  </defs>
  <g id="Grupo_1194" data-name="Grupo 1194" clip-path="url(#clip-path)">
    <path id="Trazado_2445" data-name="Trazado 2445" d="M283.286,253.2c11.878-16.607,28.758-31.239,49.738-33.623,20.6-2.341,42.1,5.185,56.146,20.559,14.147,15.487,20.573,37.659,16.061,58.232-4.267,19.456-17.427,36.822-35.484,45.437-19.656,9.376-43.772,8.514-62.553-2.591-10.983-6.494-19.03-16.736-25.472-27.647L263.913,280.3Z" transform="translate(-114.149 -94.79)" fill="none" stroke="#fff" stroke-miterlimit="10" stroke-width="0.75"/>
    <g transform="matrix(1, 0, 0, 1, 0, 0)" filter="url(#Trazado_2446)">
      <path id="Trazado_2446-2" data-name="Trazado 2446" d="M284.195,159.32l-7.148-11.334-64.5-102.268,2.016,3.077c-8.038-12.17-13.529-24.922-25.073-33.392A65.814,65.814,0,0,0,131.507,5.29C111.32,11.44,99.442,28.934,88.166,46.821l.734-1.1L15.732,155.771l1.634-2.386A65.483,65.483,0,0,0,49.75,254c20.281,6.638,44.087,3.437,60.614-10.494a102.367,102.367,0,0,0,20-23.192l-.745,1.112,41.875-62.531-.253.45C183.117,142.737,200,128.1,220.977,125.72c20.6-2.341,41.994,6.9,56.036,22.275" transform="translate(-2.1 -1.08)" fill="none" stroke="#fff" stroke-miterlimit="10" stroke-width="5"/>
    </g>
    <g transform="matrix(1, 0, 0, 1, 0, 0)" filter="url(#Trazado_2447)">
      <path id="Trazado_2447-2" data-name="Trazado 2447" d="M18.431,540.049,37.4,596.218,56.429,539.65q1.485-4.456,2.228-6.2a8.268,8.268,0,0,1,2.457-3.142,7.2,7.2,0,0,1,4.686-1.4,7.855,7.855,0,0,1,4.027,1.085,8.011,8.011,0,0,1,2.915,2.886,7.116,7.116,0,0,1,1.056,3.628,11.924,11.924,0,0,1-.342,2.715,24.654,24.654,0,0,1-.857,2.856q-.513,1.4-1.028,2.886L51.286,599.7q-1.086,3.144-2.171,5.972a25.368,25.368,0,0,1-2.514,4.971,11.272,11.272,0,0,1-3.8,3.515,11.431,11.431,0,0,1-5.8,1.371,11.606,11.606,0,0,1-5.8-1.344,11.005,11.005,0,0,1-3.828-3.542,26.093,26.093,0,0,1-2.543-5q-1.088-2.8-2.171-5.943L2.717,545.421q-.513-1.485-1.057-2.914a22.3,22.3,0,0,1-.914-3.086,13.1,13.1,0,0,1-.371-2.8,7.457,7.457,0,0,1,2.342-5.314,7.882,7.882,0,0,1,5.886-2.4q4.341,0,6.142,2.658a35.317,35.317,0,0,1,3.686,8.484" transform="translate(-0.16 -228.76)" fill="#fff"/>
    </g>
    <path id="Trazado_2448" data-name="Trazado 2448" d="M18.431,540.049,37.4,596.218,56.429,539.65q1.485-4.456,2.228-6.2a8.268,8.268,0,0,1,2.457-3.142,7.2,7.2,0,0,1,4.686-1.4,7.855,7.855,0,0,1,4.027,1.085,8.011,8.011,0,0,1,2.915,2.886,7.116,7.116,0,0,1,1.056,3.628,11.924,11.924,0,0,1-.342,2.715,24.654,24.654,0,0,1-.857,2.856q-.513,1.4-1.028,2.886L51.286,599.7q-1.086,3.144-2.171,5.972a25.368,25.368,0,0,1-2.514,4.971,11.272,11.272,0,0,1-3.8,3.515,11.431,11.431,0,0,1-5.8,1.371,11.606,11.606,0,0,1-5.8-1.344,11.005,11.005,0,0,1-3.828-3.542,26.093,26.093,0,0,1-2.543-5q-1.088-2.8-2.171-5.943L2.717,545.421q-.513-1.485-1.057-2.914a22.3,22.3,0,0,1-.914-3.086,13.1,13.1,0,0,1-.371-2.8,7.457,7.457,0,0,1,2.342-5.314,7.882,7.882,0,0,1,5.886-2.4q4.341,0,6.142,2.658A35.317,35.317,0,0,1,18.431,540.049Z" transform="translate(-0.162 -228.765)" fill="none" stroke="#4076c8" stroke-miterlimit="10" stroke-width="0.75"/>
    <g transform="matrix(1, 0, 0, 1, 0, 0)" filter="url(#Trazado_2449)">
      <path id="Trazado_2449-2" data-name="Trazado 2449" d="M153.425,605.19v-66q0-5.144,2.344-7.715a7.819,7.819,0,0,1,6.057-2.571,8.09,8.09,0,0,1,6.2,2.543q2.37,2.544,2.37,7.743v66q0,5.2-2.37,7.771a8.044,8.044,0,0,1-6.2,2.571,7.8,7.8,0,0,1-6.028-2.6q-2.373-2.6-2.373-7.742" transform="translate(-66.36 -228.77)" fill="#fff"/>
    </g>
    <path id="Trazado_2450" data-name="Trazado 2450" d="M153.425,605.19v-66q0-5.144,2.344-7.715a7.819,7.819,0,0,1,6.057-2.571,8.09,8.09,0,0,1,6.2,2.543q2.37,2.544,2.37,7.743v66q0,5.2-2.37,7.771a8.044,8.044,0,0,1-6.2,2.571,7.8,7.8,0,0,1-6.028-2.6Q153.424,610.334,153.425,605.19Z" transform="translate(-66.36 -228.765)" fill="none" stroke="#4076c8" stroke-miterlimit="10" stroke-width="0.75"/>
    <g transform="matrix(1, 0, 0, 1, 0, 0)" filter="url(#Trazado_2451)">
      <path id="Trazado_2451-2" data-name="Trazado 2451" d="M224.848,540.049l18.971,56.169,19.028-56.568q1.484-4.456,2.228-6.2a8.253,8.253,0,0,1,2.457-3.142,7.192,7.192,0,0,1,4.686-1.4,7.857,7.857,0,0,1,4.027,1.085,8.008,8.008,0,0,1,2.914,2.886,7.113,7.113,0,0,1,1.058,3.628,11.9,11.9,0,0,1-.343,2.715,24.433,24.433,0,0,1-.857,2.856q-.513,1.4-1.027,2.886L257.7,599.7q-1.086,3.144-2.171,5.972a25.308,25.308,0,0,1-2.514,4.971,11.267,11.267,0,0,1-3.8,3.515,11.427,11.427,0,0,1-5.8,1.371,11.605,11.605,0,0,1-5.8-1.344,11,11,0,0,1-3.828-3.542,26.088,26.088,0,0,1-2.543-5q-1.087-2.8-2.172-5.943l-19.941-54.282q-.515-1.485-1.058-2.914a22.463,22.463,0,0,1-.914-3.086,13.138,13.138,0,0,1-.371-2.8,7.454,7.454,0,0,1,2.343-5.314,7.881,7.881,0,0,1,5.886-2.4q4.34,0,6.141,2.658a35.316,35.316,0,0,1,3.686,8.484" transform="translate(-89.44 -228.76)" fill="#fff"/>
    </g>
    <path id="Trazado_2452" data-name="Trazado 2452" d="M224.848,540.049l18.971,56.169,19.028-56.568q1.484-4.456,2.228-6.2a8.253,8.253,0,0,1,2.457-3.142,7.192,7.192,0,0,1,4.686-1.4,7.857,7.857,0,0,1,4.027,1.085,8.008,8.008,0,0,1,2.914,2.886,7.113,7.113,0,0,1,1.058,3.628,11.9,11.9,0,0,1-.343,2.715,24.433,24.433,0,0,1-.857,2.856q-.513,1.4-1.027,2.886L257.7,599.7q-1.086,3.144-2.171,5.972a25.308,25.308,0,0,1-2.514,4.971,11.267,11.267,0,0,1-3.8,3.515,11.427,11.427,0,0,1-5.8,1.371,11.605,11.605,0,0,1-5.8-1.344,11,11,0,0,1-3.828-3.542,26.088,26.088,0,0,1-2.543-5q-1.087-2.8-2.172-5.943l-19.941-54.282q-.515-1.485-1.058-2.914a22.463,22.463,0,0,1-.914-3.086,13.138,13.138,0,0,1-.371-2.8,7.454,7.454,0,0,1,2.343-5.314,7.881,7.881,0,0,1,5.886-2.4q4.34,0,6.141,2.658A35.316,35.316,0,0,1,224.848,540.049Z" transform="translate(-89.442 -228.765)" fill="none" stroke="#4076c8" stroke-miterlimit="10" stroke-width="0.75"/>
    <g transform="matrix(1, 0, 0, 1, 0, 0)" filter="url(#Trazado_2453)">
      <path id="Trazado_2453-2" data-name="Trazado 2453" d="M389.81,528.908q13.028,0,22.37,5.286a34.26,34.26,0,0,1,14.143,15.027q4.8,9.743,4.8,22.884a55.993,55.993,0,0,1-2.628,17.657,38.223,38.223,0,0,1-7.886,13.771,34.463,34.463,0,0,1-12.914,8.914,50.912,50.912,0,0,1-35.141-.086,34.912,34.912,0,0,1-12.971-8.943,38.183,38.183,0,0,1-7.856-13.885,56.024,56.024,0,0,1-2.657-17.542,54.135,54.135,0,0,1,2.772-17.713,38.008,38.008,0,0,1,8.027-13.714,34.72,34.72,0,0,1,12.8-8.656,46.072,46.072,0,0,1,17.142-3m24.113,43.083a39.3,39.3,0,0,0-2.972-15.942,22.189,22.189,0,0,0-8.485-10.2,23.328,23.328,0,0,0-12.656-3.457,22.916,22.916,0,0,0-9.4,1.914,20.65,20.65,0,0,0-7.428,5.57,26.634,26.634,0,0,0-4.914,9.343,42.231,42.231,0,0,0-1.8,12.771,43.282,43.282,0,0,0,1.8,12.914,26.466,26.466,0,0,0,5.085,9.57,21.35,21.35,0,0,0,7.542,5.686,23.829,23.829,0,0,0,21.314-1.371,22.534,22.534,0,0,0,8.685-10.057q3.228-6.8,3.228-16.742" transform="translate(-150.98 -228.77)" fill="#fff"/>
    </g>
    <path id="Trazado_2454" data-name="Trazado 2454" d="M389.81,528.908q13.028,0,22.37,5.286a34.26,34.26,0,0,1,14.143,15.027q4.8,9.743,4.8,22.884a55.993,55.993,0,0,1-2.628,17.657,38.223,38.223,0,0,1-7.886,13.771,34.463,34.463,0,0,1-12.914,8.914,50.912,50.912,0,0,1-35.141-.086,34.912,34.912,0,0,1-12.971-8.943,38.183,38.183,0,0,1-7.856-13.885,56.024,56.024,0,0,1-2.657-17.542,54.135,54.135,0,0,1,2.772-17.713,38.008,38.008,0,0,1,8.027-13.714,34.72,34.72,0,0,1,12.8-8.656A46.072,46.072,0,0,1,389.81,528.908Zm24.113,43.083a39.3,39.3,0,0,0-2.972-15.942,22.189,22.189,0,0,0-8.485-10.2,23.328,23.328,0,0,0-12.656-3.457,22.916,22.916,0,0,0-9.4,1.914,20.65,20.65,0,0,0-7.428,5.57,26.634,26.634,0,0,0-4.914,9.343,42.231,42.231,0,0,0-1.8,12.771,43.282,43.282,0,0,0,1.8,12.914,26.466,26.466,0,0,0,5.085,9.57,21.35,21.35,0,0,0,7.542,5.686,23.829,23.829,0,0,0,21.314-1.371,22.534,22.534,0,0,0,8.685-10.057Q413.922,581.935,413.923,571.991Z" transform="translate(-150.981 -228.765)" fill="none" stroke="#4076c8" stroke-miterlimit="10" stroke-width="0.75"/>
    <g transform="matrix(1, 0, 0, 1, 0, 0)" filter="url(#Trazado_2444)">
      <path id="Trazado_2444-2" data-name="Trazado 2444" d="M283.286,253.2c11.878-16.607,28.758-31.239,49.738-33.623,20.6-2.341,42.1,5.185,56.146,20.559,14.147,15.487,20.573,37.659,16.061,58.232-4.267,19.456-17.427,36.822-35.484,45.437-19.656,9.376-43.772,8.514-62.553-2.591-10.983-6.494-19.03-16.736-25.472-27.647L263.913,280.3Z" transform="translate(-114.15 -94.79)" fill="#fff"/>
    </g>
  </g>
</svg>
